<svg xmlns="http://www.w3.org/2000/svg" viewBox="0 0 500 500" width="100%" height="100%">
  <defs>
    <style>
      .bg-circle { fill: #5c6f84; }
      .house-t { fill: #112233; fill-rule: evenodd; }
      .bubble-orange { fill: #f2a115; }
      .bubble-teal { fill: #20b2aa; }
      .dots { fill: #5c6f84; }
    </style>
  </defs>

  <circle cx="250" cy="250" r="230" class="bg-circle" />

  <g transform="translate(0, -10)">
    <path d="M 160,260 L 220,260 L 220,380 L 195,380 L 160,405 L 160,260 Z" class="bubble-orange" rx="5" />
    
    <path d="M 280,260 L 340,260 L 340,405 L 305,380 L 280,380 L 280,260 Z" class="bubble-teal" />
    
    <g class="dots">
      <rect x="292" y="320" width="10" height="10" rx="1" />
      <rect x="307" y="320" width="10" height="10" rx="1" />
      <rect x="322" y="320" width="10" height="10" rx="1" />
    </g>

    <path d="
      M 250,100 L 440,215 L 415,240 L 390,225 L 390,260 L 415,260 L 415,280 L 390,280 L 390,225 L 250,140 L 110,225 L 85,200 Z 
      M 165,225 L 335,225 L 335,260 L 270,260 L 270,410 C 270,430 230,430 230,410 L 230,260 L 165,260 Z" 
      class="house-t" />
  </g>
</svg>
